<svg width="40" height="40" viewBox="0 0 40 40" fill="none" xmlns="http://www.w3.org/2000/svg">
<rect width="40" height="40" rx="20" fill="url(#paint0_linear_4_5)"/>
<path d="M10.7317 7.80487C12.7893 7.80487 13.8181 7.80487 14.6135 8.18312C15.4236 8.56842 16.0763 9.2211 16.4616 10.0313C16.8399 10.8266 16.8399 11.8554 16.8399 13.913V29.141C16.8399 30.8278 15.4725 32.1951 13.7858 32.1951C12.0991 32.1951 10.7317 30.8278 10.7317 29.141V7.80487Z" fill="white"/>
<path d="M10.7317 7.80487H25.625C27.0983 7.80487 28.2927 8.99923 28.2927 10.4726C28.2927 11.9459 27.0983 13.1402 25.625 13.1402H16.0671C14.734 13.1402 14.0675 13.1402 13.5243 12.9791C12.2585 12.6036 11.2684 11.6135 10.8929 10.3477C10.7317 9.80444 10.7317 9.13792 10.7317 7.80487Z" fill="white"/>
<path d="M22.3854 22.1434C20.3769 23.301 18.1505 23.2051 17.4125 21.9292C16.6746 20.6532 17.7046 18.6805 19.7131 17.5229C21.7216 16.3652 23.9481 16.4612 24.686 17.7371C25.424 19.013 24.394 20.9858 22.3854 22.1434Z" fill="white"/>
<defs>
<linearGradient id="paint0_linear_4_5" x1="0" y1="0" x2="40" y2="40" gradientUnits="userSpaceOnUse">
<stop stop-color="#9F88FB"/>
<stop offset="1" stop-color="#7D67E0"/>
</linearGradient>
</defs>
</svg>
